<?xml version="1.0" encoding="UTF-8" standalone="no"?>
<!-- Creator: CorelDRAW -->

<svg
   xmlns:dc="http://purl.org/dc/elements/1.1/"
   xmlns:cc="http://creativecommons.org/ns#"
   xmlns:rdf="http://www.w3.org/1999/02/22-rdf-syntax-ns#"
   xmlns:svg="http://www.w3.org/2000/svg"
   xmlns="http://www.w3.org/2000/svg"
   xmlns:sodipodi="http://sodipodi.sourceforge.net/DTD/sodipodi-0.dtd"
   xmlns:inkscape="http://www.inkscape.org/namespaces/inkscape"
   id="svg2"
   style="clip-rule:evenodd;fill-rule:evenodd;image-rendering:optimizeQuality;shape-rendering:geometricPrecision;text-rendering:geometricPrecision"
   sodipodi:docname="WitchOverSilveryMoon.svg"
   xml:space="preserve"
   sodipodi:version="0.32"
   version="1.0"
   inkscape:version="0.91 r13725"
   viewBox="0 0 699.99999 564.74828"
   width="700"
   height="564.74829"><sodipodi:namedview
     id="namedview32"
     bordercolor="#666666"
     inkscape:pageshadow="2"
     guidetolerance="10.0"
     pagecolor="#ffffff"
     gridtolerance="10.0"
     inkscape:zoom="1.1863692"
     objecttolerance="10.0"
     borderopacity="1.0"
     inkscape:current-layer="svg2"
     inkscape:cx="350"
     inkscape:cy="282.37415"
     inkscape:window-y="-8"
     inkscape:window-x="-8"
     inkscape:window-height="837"
     inkscape:pageopacity="0.0"
     inkscape:window-width="1600"
     showgrid="false"
     fit-margin-top="0"
     fit-margin-left="0"
     fit-margin-right="0"
     fit-margin-bottom="0"
     inkscape:window-maximized="1" /><defs
     id="defs4"><style
       id="style6"
       type="text/css">
    .fil2 {fill:#040102}
    .fil4 {fill:#813F08}
    .fil3 {fill:#E6000A}
    .fil0 {fill:#EC7677}
    .fil1 {fill:#ED773A}
    .fil5 {fill:#EEE400}
  </style><metadata
       id="metadata22"><rdf:RDF><cc:Work
           rdf:about=""><dc:format>
      image/svg+xml     </dc:format><dc:type
             rdf:resource="http://purl.org/dc/dcmitype/StillImage" /><cc:license
             rdf:resource="http://web.resource.org/cc/PublicDomain" /><dc:title></dc:title></cc:Work><cc:License
           rdf:about="http://web.resource.org/cc/PublicDomain"><cc:permits
             rdf:resource="http://web.resource.org/cc/Reproduction" /><cc:permits
             rdf:resource="http://web.resource.org/cc/Distribution" /><cc:permits
             rdf:resource="http://web.resource.org/cc/DerivativeWorks" /></cc:License></rdf:RDF></metadata></defs><metadata
     id="metadata18"><rdf:RDF><cc:Work><dc:format>image/svg+xml</dc:format><dc:type
           rdf:resource="http://purl.org/dc/dcmitype/StillImage" /><cc:license
           rdf:resource="http://creativecommons.org/licenses/publicdomain/" /><dc:publisher><cc:Agent
             rdf:about="http://openclipart.org/"><dc:title>Openclipart</dc:title></cc:Agent></dc:publisher><dc:title>witch over harvest moon</dc:title><dc:date>2006-10-09T03:56:16</dc:date><dc:description>A witch flying on her broomstick.</dc:description><dc:source>https://openclipart.org/detail/451/witch-over-harvest-moon-by-lakeside</dc:source><dc:creator><cc:Agent><dc:title>lakeside</dc:title></cc:Agent></dc:creator><dc:subject><rdf:Bag><rdf:li>animal</rdf:li><rdf:li>bat</rdf:li><rdf:li>black</rdf:li><rdf:li>broom</rdf:li><rdf:li>broomstick</rdf:li><rdf:li>brown</rdf:li><rdf:li>fly</rdf:li><rdf:li>flying</rdf:li><rdf:li>halloween</rdf:li><rdf:li>hat</rdf:li><rdf:li>moon</rdf:li><rdf:li>night</rdf:li><rdf:li>orange</rdf:li><rdf:li>witch</rdf:li><rdf:li>woman</rdf:li></rdf:Bag></dc:subject></cc:Work><cc:License
         rdf:about="http://creativecommons.org/licenses/publicdomain/"><cc:permits
           rdf:resource="http://creativecommons.org/ns#Reproduction" /><cc:permits
           rdf:resource="http://creativecommons.org/ns#Distribution" /><cc:permits
           rdf:resource="http://creativecommons.org/ns#DerivativeWorks" /></cc:License></rdf:RDF></metadata><g
     id="g4157"
     transform="matrix(1.9997294,0,0,1.9997294,137.30164,-14.889385)"><path
       d="m 21.6,84.971 0.015,-0.01 -0.015,0.01 z m 0.991,-0.704 -0.204,0.138 0,0.001 -0.199,0.139 -10e-4,0 -0.195,0.138 -0.001,10e-4 -0.19,0.138 -0.186,0.137 -10e-4,0 -0.181,0.138 -0.001,0 -0.177,0.137 -0.173,0.137 -0.17,0.136 0,10e-4 -0.164,0.136 -0.161,0.136 0,0.001 -0.156,0.137 -0.153,0.137 -0.147,0.137 -0.001,0 -0.144,0.137 -0.139,0.139 -0.001,0 -0.136,0.138 -0.001,0 -0.132,0.138 0,0.001 -0.129,0.139 -0.124,0.14 0,0.001 -0.121,0.14 -0.118,0.142 -0.113,0.142 0,0.001 -0.11,0.143 0,10e-4 -0.107,0.143 0,0.001 -0.102,0.145 0,0.001 -0.1,0.146 -0.096,0.148 0,0.001 -0.093,0.149 -0.089,0.151 -0.085,0.152 0,0.001 -0.082,0.154 -0.08,0.155 0,10e-4 -0.077,0.157 -0.073,0.158 0,10e-4 -0.07,0.16 0,10e-4 -0.067,0.161 0,0.001 -0.064,0.165 -0.06,0.166 0,10e-4 -0.058,0.169 -0.055,0.171 -0.052,0.174 -0.05,0.175 0,10e-4 -0.046,0.178 -0.045,0.181 -0.041,0.183 0,0.001 -0.039,0.186 -0.035,0.189 -0.034,0.191 -0.032,0.194 -0.029,0.198 -0.026,0.201 -0.024,0.203 -0.021,0.207 -0.02,0.209 -0.016,0.214 -0.016,0.216 -0.013,0.22 -0.011,0.224 -0.008,0.228 -0.007,0.23 -0.004,0.235 -0.003,0.239 -10e-4,0.243 c -0.663,5.177 -10.229,5.987 -14.305,7.107 -1.0159,1.38 -5.1707,8.64 -2.0927,9.63 4.4279,-0.91 4.2139,-5.35 9.4452,-2.83 -0.8912,4.96 -0.9727,10.61 -4.4305,14.49 -1.2886,1.38 -2.275,2.79 -3.3533,4.34 -3.2208,7.19 15.944,-0.18 18.521,-0.03 5.851,2.8 11.042,-3.5 14.921,-7.23 l -0.078,0.22 -0.003,0.01 -0.038,0.1 c -0.071,0.2 -0.148,0.4 -0.23,0.59 l -0.035,0.08 -0.049,0.11 -0.015,0.04 -0.034,0.07 -0.069,0.15 -0.001,0 -0.032,0.07 -0.068,0.14 -0.008,0.02 -0.03,0.06 -0.006,0.01 -0.063,0.13 -0.041,0.07 -0.057,0.11 -0.002,0.01 c -0.071,0.13 -0.145,0.26 -0.221,0.39 l -0.023,0.04 -0.083,0.15 -0.05,0.08 -0.096,0.16 -0.027,0.04 -0.082,0.13 -0.061,0.09 -0.087,0.14 c 0.187,-0.26 -0.179,0.31 0.071,-0.11 5.89,-6.84 10.042,-16.24 11.011,-24.357 l 0.167,-1.944 c 0.982,0.44 -21.259,-12.377 -22.706,-12.982 z"
       style="fill:#ec7677"
       class="fil0"
       id="path10"
       inkscape:connector-curvature="0" /><polygon
       transform="matrix(3.7209,0,0,3.7209,-278.58,-401.64)"
       class="fil1"
       points="125.47,145.23 127.26,145.44 129.02,145.77 129.02,145.43 125.86,144.84 122.66,144.66 119.39,144.74 116.12,144.98 115.91,145.1 115.96,145.36 119.12,145.11 122.3,145.07 "
       style="fill:#ed773a"
       id="path2230" /><path
       class="fil1"
       d="m 157.9,142.29 0.21,1.05 c 16.58,-0.88 32.18,-0.57 48.52,0.8 l 0.37,0.03 0.09,-0.59 c -19.33,-3.86 -32.77,-2.57 -49.19,-1.29 z"
       style="fill:#ed773a"
       id="path2228"
       inkscape:connector-curvature="0" /><polygon
       transform="matrix(3.7209,0,0,3.7209,-278.58,-401.64)"
       class="fil1"
       points="122.18,170.56 123.94,170.78 125.68,171.11 125.84,170.77 123.74,170.32 121.61,170.06 119.47,170 116.18,170.08 112.91,170.3 112.67,170.31 112.67,170.66 115.84,170.42 119.02,170.38 "
       style="fill:#ed773a"
       id="path2226" /><polygon
       transform="matrix(3.7209,0,0,3.7209,-278.58,-401.64)"
       class="fil1"
       points="120.48,171.6 122.24,171.81 123.98,172.14 124.13,171.81 122.04,171.36 119.91,171.1 117.77,171.03 114.48,171.11 111.2,171.33 110.97,171.35 110.97,171.7 114.14,171.45 117.31,171.42 "
       style="fill:#ed773a"
       id="path15" /><path
       id="_1"
       d="m -23.679688,162.63086 -4.060546,0.54883 -3.691407,1.78125 -2.953125,2.79883 25.5351566,1.50976 c -3.1679996,-1.78 -5.9941246,-3.57945 -8.9531246,-5.68945 -2.051,-0.52 -3.776954,-0.79922 -5.876954,-0.94922 z"
       style="fill:#ec7677"
       inkscape:connector-curvature="0" /><path
       class="fil3"
       d="m 51.265,7.4457 c -29.59,0.9261 -53.784,15.144 -68.791,40.702 -9.815,19.23 -12.391,39.67 -6.399,60.422 5.334,16.95 15.577,31.39 30.058,41.72 0.5454,0.45 1.1939,0.83 1.7841,1.23 0.4435,0.32 4.4379,-3.11 5.0459,-3.72 -3.2718,-1.39 -7.4199,-2.36 -8.676,-6.16 1.0541,-0.25 11.443,-2.83 6.799,-4.39 -3.5994,0 -7.864,-0.62 -11.414,-1.27 1.6873,-1.65 5.0216,-1.38 0.98445,-3.81 -2.9452,-0.58 -8.153,-0.71 -8.153,-4.83 1.4453,-0.7 7.0215,-1.1 3.0461,-3.79 -4.1931,-1.38 -8.4155,-0.34 -10.522,-5.53 -2.491,-4.98 4.63,-2.6 6.4605,-4.43 1.408,-1.44 -1.9035,-1.87 -2.5845,-1.97 -3.128,-1.04 -6.061,-2.08 -6.061,-5.91 1.835,-1.21 7.9515,-1.61 2.892,-4.18 -1.425,-0.7 -6.675,-2.39 -3.353,-4.618 2.497,-0.812 9.0719,0.133 3.63,-3.538 -8.098,-1.988 0.472,-5.2 4.461,-5.2 1.7403,-0.243 11.568,1.21 11.568,-1.846 -0.3457,-0.704 -1.0724,-0.805 -1.7846,-0.984 -3.8169,0 -13.353,-1.252 -15.598,-4.984 -2.039,-2.736 0.921,-2.8 2.831,-2.8 5.9061,0 1.795,-3.358 -1.292,-4.399 -3.871,-2.596 -0.233,-6.369 3.384,-6.369 1.1685,-0.228 7.2604,-0.2 7.2604,-2.092 0,-0.917 -2.4156,-1.19 -2.9842,-1.477 -3.9662,-0.781 -10.988,-3.156 -3.2919,-5.722 8.2392,-1.34 17.641,1.356 25.32,-2.553 2.705,-2.705 -4.893,-2.565 -5.753,-2.615 -5.1433,-0.309 -10.759,-0.306 -15.69,-1.97 -1.534,-0.752 -2.0717,-0.989 -0.8002,-2.307 6.647,-3.205 15.449,-3.292 22.766,-3.292 0.202,-0.097 1.338,-0.446 0.985,-0.8 0,-0.052 -0.236,-0.215 -0.338,-0.215 -0.055,-0.054 -0.352,-0.154 -0.431,-0.154 -2.093,-1.027 -22.566,0.419 -16.737,-4.645 12.5,-10.892 25.75,-19.138 42.703,-20.152 0.962,-0.113 4.553,-0.927 4.553,0.031 0,3.736 16.747,1.672 17.352,2.277 0,0.336 -2.264,0.72 -2.585,1.661 -0.922,0.939 4.012,1.784 4.431,1.784 3.47,0.586 7.343,0.37 10.798,0.37 0,0.314 -5.319,1.356 -6.522,2.153 -6.834,5.157 9.151,4.291 11.045,4.184 3.412,-0.189 6.788,-0.493 10.183,-0.892 18.545,9.681 28.405,30.101 31.535,50.117 0.13,1.58 0.21,3.159 0.34,4.738 2.03,0.767 4.29,1.197 6.4,1.723 0,-20.434 -8.34,-40.282 -22.15,-55.286 -15.621,-15.617 -34.565,-23.562 -56.705,-24.212 z"
       style="fill:#d8c188;fill-opacity:1"
       id="path2267"
       inkscape:connector-curvature="0" /><path
       d="m 252.28,155.81 c -2.51,0.02 -5.08,0.34 -7.75,1.03 -4.27,2.01 -8.9,4.63 -7.69,10 l -12.25,-1.65 c -5.53,3.13 -11.27,5.59 -17.28,7.65 9.11,-0.02 17.46,0.16 26.35,2.25 l -1.5,1.53 c 0.13,0.93 0.47,1.61 0.18,2.47 -3.02,0.5 -2.93,1.55 -2.09,3.97 -2.36,0.48 -3.92,1.18 -6,2.41 -4.12,8.05 8.32,12.66 13.84,14.53 23.43,5.5 48.02,2.67 70.91,-3.97 1.46,-1.17 -1.52,-0.65 -2.28,-0.59 -5.38,0.89 -10.46,0.22 -15.84,-0.35 1.7,-0.34 12.68,-1.86 13.15,-3.28 -3.72,-0.4 -7.46,-0.74 -11.19,-1.09 l -8.15,-2.03 c 0.24,-0.22 0.47,-0.4 0.75,-0.57 10.74,0.13 29.02,2.88 37.06,-6.59 -1.26,-1.88 -5.44,0.12 -7.28,0.5 -10.51,0.43 -21,-1.05 -31.47,-2 4.81,-3.23 11.12,-3.26 16.69,-2.37 1.5,-0.42 -0.37,-1.06 -1.1,-1.41 -5.82,-0.89 -11.64,-0.79 -17.46,-1.69 8.27,-0.9 16.9,-1.25 25.03,-3 1.37,-0.54 1.11,-0.55 -0.16,-1.09 -9.77,-1.08 -19.48,-2.25 -29.22,-3.63 0.96,-0.33 2.54,-0.53 2.63,-1.68 -4.31,-1.18 -7.85,-2.91 -11.82,-5 -5.32,-2.82 -10.54,-4.38 -16.06,-4.35 z m -68.16,30.28 2.94,2.35 3.41,1.65 3.75,1 3.84,0.25 5.32,-0.78 5.03,-1.81 -8.1,0.41 -5.5,-0.41 -5.4,-1.03 -5.29,-1.63 z"
       transform="matrix(1.1177,0,0,1.1177,-79.071,0)"
       style="fill:#813f08"
       id="path1896"
       inkscape:connector-curvature="0" /><path
       id="path2291"
       d="m 47.203125,18.396484 c -18.917,1.132 -34.259188,7.925016 -47.9921875,21.166016 -0.7824,0.812 -0.7479319,2.123047 0.83007812,2.123047 4.67939998,1.578 11.44768738,1.845703 16.42968738,1.845703 1.199,1.199 0.975983,0.917766 -1.416015,1.384766 -3.273,0 -22.1816411,0.30114 -22.1816411,4.36914 4.4268,4.427 16.2491879,2.036813 22.2421871,3.507813 6.66,3.391 -12.7284215,4.367187 -12.9824215,4.367187 -1.4453,0 -19.1734375,-0.651953 -14.3984375,4.123047 2.231,1.115 14.6033031,2.976422 5.8457031,5.107422 -2.8819,0 -11.7563341,1.19075 -8.5527341,5.96875 1.349,0.893 7.651631,3.197422 4.769531,5.107422 -2.14,0 -8.460031,-0.339938 -4.707031,3.414062 2.465,3.296 11.2436248,4.400391 14.89062475,4.400391 6.90940005,2.33 -5.19564065,2.921875 -6.36914065,2.921875 -4.3613001,-0.609 -17.0501691,2.120516 -7.2304691,5.353516 6.9583008,4.695 -9.2775,1.152141 -3.9375,6.494139 2.196,1.12 7.7446628,2.48883 3.539063,4.54883 -6.19,0 -1.643906,5.68953 2.121094,6.76953 0.807,0.23 4.3495121,0.47 3.5703121,2 -2.3400001,2.34 -11.1820151,-0.30992 -5.4160161,6.58008 3.169001,3.98 7.2225474,1.38125 10.1230474,4.28125 2.5872,3.9 -7.3582344,1.0993 -2.6777344,5.7793 1.1922,1.2 10.8118875,2.32109 8.4296875,4.62109 -1.9453,0.99 -3.5964969,1.05 -0.091797,1.75 0.9622,0.08 10.3066405,0.009 10.3066405,2.0293 -1.648,1.71 -5.6970467,2.66047 -8.0605467,3.23046 0.7465992,2.21708 6.9687867,7.02184 8.8183597,5.79102 0.05382,-0.0393 0.108221,-0.0787 0.154297,-0.12891 0.06006,-0.0655 0.111818,-0.14078 0.158203,-0.22461 0.730353,-1.08375 1.485789,-2.15786 2.238281,-3.23242 2.865783,-4.11364 5.809646,-8.18988 8.380859,-12.47656 0.14296,-0.0519 0.286375,-0.11188 0.429688,-0.16797 0.239171,-0.0937 0.477304,-0.19183 0.716797,-0.29687 0.186275,-0.0816 0.37263,-0.16563 0.558594,-0.25391 0.09589,-0.0456 0.191378,-0.0972 0.287109,-0.14453 0.478129,-0.23604 0.954139,-0.49416 1.423828,-0.77148 0.131308,-0.0776 0.262279,-0.15566 0.392578,-0.23633 0.467413,-0.28918 0.927221,-0.59721 1.376953,-0.92383 0.08936,-0.0649 0.181037,-0.12506 0.269532,-0.19141 0.139997,-0.1049 0.27642,-0.21394 0.414062,-0.32226 0.257527,-0.20279 0.509641,-0.41267 0.757812,-0.62696 0.117071,-0.10105 0.236818,-0.19922 0.351563,-0.30273 0.325412,-0.29365 0.639008,-0.5998 0.943359,-0.91211 0.106585,-0.10937 0.210744,-0.2205 0.314454,-0.33203 0.274636,-0.29538 0.540424,-0.59658 0.792968,-0.90625 0.06709,-0.0823 0.133817,-0.16483 0.199219,-0.24805 0.261622,-0.3329 0.505721,-0.67427 0.738281,-1.02148 0.693131,-1.0346 1.256663,-2.12596 1.632813,-3.26172 -3.879,3.73 -9.068922,10.03047 -14.919922,7.23047 -2.577,-0.15 -21.7424846,7.21125 -18.5214846,0.0312 1.078,-1.56 2.0649156,-2.9618 3.3535156,-4.3418 3.4578,-3.88 3.5384875,-9.52828 4.4296875,-14.48828 -5.2313,-2.52 -5.0174125,1.92008 -9.44531248,2.83008 -3.07800002,-0.99 1.07629688,-8.25086 2.09179688,-9.63086 4.0762,-1.12 13.6416881,-1.93942 14.3046881,-7.107424 0,-5.214 1.252109,-7.715031 5.662109,-10.707031 L 21.761719,83.804688 C 20.196719,85.372687 4.2079219,72.994203 1.7949219,71.158203 l 0,-0.398437 c 8.6153001,1.706 16.9671091,4.146734 25.4121091,6.552734 13.978,-10.786 26.164188,-24.457734 42.117188,-32.302734 l 5.876953,-2.03125 c 4.161,2.304 5.795642,3.592484 6.30664,8.521484 0.625,4.178 0.790922,6.936891 5.044922,8.337891 2.671601,2.05752 4.561162,4.85744 6.306641,7.755859 a 34.353146,30.981058 0 0 0 -9.189453,-1.160156 34.353146,30.981058 0 0 0 -2.230469,0.07227 c -2.140786,-1.734587 -3.564608,-3.503602 -5.316406,-5.83789 -1.195,-0.97 -1.722219,-1.458735 -3.199219,-0.677735 l -5.105469,9.953125 a 34.353146,30.981058 0 0 0 -18.501953,27.470703 34.353146,30.981058 0 0 0 0.08594,2.179688 L 45.296875,97.248047 45.142578,99.0625 c 0.0087,0.0048 0.01671,0.01083 0.02539,0.01563 8.59e-4,-0.0071 0.0031,-0.01435 0.0039,-0.02148 l 0.859375,0.507812 c 0.05088,0.02841 0.101477,0.05749 0.152344,0.08594 l 0.0293,0 c 0.28677,0.165398 0.570869,0.334304 0.857421,0.499998 0.867934,0.48951 1.737931,0.97441 2.603516,1.46875 a 34.353146,30.981058 0 0 0 0.01172,0.0547 c 5.797717,3.37393 11.569581,6.78071 17.382812,10.1289 l 0.345703,0.21289 c 0.11177,0.0335 0.245652,0.0792 0.357422,0.10157 1.752509,2.47295 10.788123,-2.66917 19.927735,-1.83789 l 14.197264,2.47461 c 6.54178,2.11172 18.49147,6.88747 24.26954,3.10351 1.15651,-0.82817 2.07411,-1.9416 2.63867,-3.41601 0.0877,-0.23848 0.17314,-0.47861 0.24414,-0.73829 0.0909,-0.33248 0.16829,-0.68228 0.23047,-1.05078 0,-0.20183 -0.0192,-0.39082 -0.0352,-0.58203 -0.009,-0.0997 -0.0107,-0.20388 -0.0234,-0.30078 -0.0226,-0.17568 -0.0579,-0.34287 -0.0937,-0.50976 -0.0282,-0.13008 -0.0578,-0.25979 -0.0937,-0.38477 -0.0421,-0.14778 -0.0883,-0.29263 -0.14062,-0.43359 -0.0524,-0.14021 -0.11172,-0.27634 -0.17383,-0.41016 -0.0524,-0.11352 -0.10116,-0.22875 -0.16016,-0.33789 -0.12281,-0.22612 -0.257,-0.4436 -0.40625,-0.65234 -0.006,-0.009 -0.0113,-0.0186 -0.0176,-0.0273 -0.044,-0.0611 -0.0965,-0.11604 -0.14258,-0.17578 -0.12324,-0.15912 -0.24932,-0.31692 -0.38672,-0.4668 -0.0799,-0.0874 -0.16559,-0.17135 -0.25,-0.25586 -0.12947,-0.12932 -0.26122,-0.25781 -0.40039,-0.38085 -0.0769,-0.0681 -0.15473,-0.13487 -0.23438,-0.20118 -0.10243,-0.0852 -0.21168,-0.1656 -0.31836,-0.24804 -0.30847,-0.23864 -0.63197,-0.46811 -0.9707,-0.6875 -0.0691,-0.0447 -0.13301,-0.0927 -0.20312,-0.13672 -0.52794,-0.33176 -1.09084,-0.64345 -1.66211,-0.94922 -1.19618,-0.63964 -2.44089,-1.25409 -3.63086,-1.91406 -0.13745,-0.0763 -0.27867,-0.14864 -0.41407,-0.22657 -0.10857,-0.0624 -0.2133,-0.12774 -0.32031,-0.1914 -0.33486,-0.1993 -0.66118,-0.40509 -0.97656,-0.61914 -0.11658,-0.0792 -0.23632,-0.15669 -0.34961,-0.23828 -0.004,-0.003 -0.009,-0.005 -0.0137,-0.008 -2.57051,-1.855594 -4.24882,-4.372118 -3.11133,-8.873043 0.50913,-1.019273 1.24513,-1.660118 2.07422,-2.107422 a 34.353146,30.981058 0 0 0 -0.004,-0.01367 c 0.0548,-0.02935 0.11234,-0.05244 0.16797,-0.08008 0.0639,-0.03194 0.12851,-0.06201 0.19336,-0.0918 0.15877,-0.07248 0.31906,-0.140009 0.48242,-0.201172 0.0625,-0.02353 0.12445,-0.04824 0.1875,-0.07031 0.0814,-0.02835 0.16406,-0.05001 0.2461,-0.07617 0.25659,-0.08216 0.51195,-0.151164 0.77148,-0.216797 0.33,-0.08343 0.65286,-0.163254 0.97656,-0.234375 0.5293,-0.115937 1.04322,-0.229137 1.51368,-0.367187 0.30708,-0.09086 0.5905,-0.199188 0.85351,-0.324219 0.0581,-0.02738 0.11637,-0.05438 0.17188,-0.08398 0.0914,-0.04914 0.17985,-0.100286 0.26367,-0.15625 0.0524,-0.03469 0.0992,-0.07566 0.14844,-0.113281 0.29148,-0.224761 0.52523,-0.505062 0.68359,-0.861329 0.0251,-0.05589 0.051,-0.110093 0.0723,-0.169921 0.0397,-0.112821 0.0702,-0.235614 0.0957,-0.363282 0.0136,-0.06705 0.0238,-0.137561 0.0332,-0.208984 0.0198,-0.152828 0.0371,-0.308386 0.0371,-0.482422 -0.86,-11.017 -3.90852,-21.871953 -9.22852,-31.626953 -4.3,-7.879 -15.296264,-24.052922 -25.322264,-22.919922 -4.614,0.521 -16.673391,2.557078 -20.275391,-1.044922 0,-2.922 5.939344,-4.523437 8.277344,-4.523437 0,-0.162 0.0077,-0.183594 -0.154297,-0.183594 -0.01,0 -21.368359,-0.679766 -13.443359,-3.384766 0.179,0 1.075625,-0.27789 0.890625,-0.46289 -1.94,0 -17.259766,1.533218 -17.259766,-2.675782 z"
       style="fill:#eee4cb;fill-opacity:1"
       inkscape:connector-curvature="0" /><path
       class="fil2"
       d="m 21.6,84.971 0.015,-0.01 -0.015,0.01 z m 40.18,21.699 4.838,2.76 -11.414,-14.888 17.721,-34.55 c 1.477,-0.781 2.004,-0.293 3.199,0.677 2.024,2.697 3.607,4.638 6.368,6.646 1.595,0.652 12.837,6.421 12.522,3.907 -2.455,-4.066 -4.676,-8.469 -8.461,-11.384 -4.254,-1.401 -4.42,-4.159 -5.045,-8.337 -0.511,-4.929 -2.146,-6.218 -6.307,-8.522 L 69.325,45.01 C 53.372,52.855 41.185,66.527 27.207,77.313 18.762,74.907 10.41,72.466 1.795,70.76 l -3e-4,0.4 c 1.9319,1.47 12.561,9.693 17.529,12.112 -0.904,-0.441 -1.997,-1.075 -3.189,-1.824 2.436,1.452 4.947,2.762 5.567,2.403 0.021,-0.015 0.042,-0.029 0.06,-0.046 l 0.83,0.461 -0.001,10e-4 c 13.135,7.323 26.144,14.904 39.19,22.393 l -0.001,0.01 z"
       style="fill:#040102"
       id="path2284"
       inkscape:connector-curvature="0" /><path
       sodipodi:nodetypes="ccccccc"
       inkscape:connector-curvature="0"
       id="path4146"
       style="fill:#813f08;fill-opacity:1"
       d="m -34.385,167.76 c -8.306,0.25 -16.61,-0.45 -24.92,-0.64 -2.809,0.3 -7.026,0.16 -9.322,2.09 -0.807,3.89 13.383,5.35 15.782,5.57 25.004,2.31 50.025,4.45 75.037,6.68 L -8.85,169.27 c -25.535,-1.51 0,0 -25.535,-1.51 z"
       class="fil0" /><path
       sodipodi:nodetypes="ccsccccccccccccccccccccccccccccccccccccccccccccccccccccccccccccccccccccccccccccccccccccccccccccccccccccccccccccccccccccccccccccccccccccccccccccccccccccccccccccccccccccccccccccccccccccccccccccccccccccccccccccccccccccccccccccccccccccccccccccccccscccccccccccccccccccccccccccccccccccccccccccccccccccccscccccccccccccccccccccccccccccccccccccccccccccccccccccccccccccccccc"
       inkscape:connector-curvature="0"
       d="m 269.81,56.719 c -23.81,0.17 -47.11,2.001 -70.59,7.75 -1.97,0.788 -0.85,1.625 0.69,1.625 12.56,0 21.32,9.13 5.4,13.375 -10.21,1.903 -16.47,-3.157 -23.72,-3.157 0,0 -0.04,0.045 -0.15,0.126 -0.19,3.71 -6.03,1.37 -8.03,5.374 -2.76,10.921 13,8.792 13,17.188 -1.78,10.55 -17.05602,4.28296 -24.5,1.88 L 149.20839,98.666056 C 141.03123,97.922313 132.94796,102.52254 131.38,100.31 c -0.1,-0.02 -0.22,-0.06 -0.32,-0.09 l -0.31,-0.19 c -6.24,-3.594 -12.42,-7.275 -18.66,-10.874 l -0.03,0 -0.9,-0.531 c -0.87,7.262 -4.61,15.785 -9.88,21.905 -2.075,3.19 -5.608,5.76 -8.999,7 l -0.156,0.25 c -1.125,1.86 -2.33,3.67 -3.563,5.47 -1.178,1.77 -2.316,3.4 -3.437,4.91 -0.798,1.14 -1.6,2.28 -2.375,3.43 -0.166,0.3 -0.432,0.47 -0.781,0.5 -5.744,6.48 -12.393,10.31 -25.625,13.69 5.689,6.69 23.122,11.49 30.218,14.16 2.058,0.77 14.938,4.81 15.128,5.84 0.09,0.49 0.44,0.94 0.93,1.06 4.66,-6.8 14.01,0.39 19.88,-5.59 1.49,-1.51 2.94,-3.06 4.44,-4.56 1.79,0 -7.86,8.98 -9.56,10.47 -2.69,2.35 -4.61,5.44 -7.35,7.75 -4.08,3.42 -9.28,7.78 -11.092,12.93 -6.206,17.66 33.262,7.75 21.842,28.75 -1.15,2.41 -4.5,5.36 -3.44,8.32 2.12,4.22 9.9,-1.5 10.72,0.31 3.33,7.28 3.6,15.42 3.6,23.28 0.69,23.01 13.23,4.03 10.84,-7.94 -0.33,-1.93 -2.06,-9.8 0.38,-5.18 2.64,5.03 1.43,4 1.43,9.12 0.91,8.15 16.01,-6.36 15.22,4 0.91,6.48 7.21,8.8 12.97,6.81 -5.91,-2.94 -4.68,-13.79 -8.31,-19.4 -4.97,-7.68 -9.29,-14.4 -0.75,-24.1 8.37,-9.92 15.93,-18.9 21.72,-30.37 2.15,-4.01 3.83,-4.07 8.09,-5.03 11.17,-2.53 21.3,-5.55 31.34,-11.22 -0.91,-0.11 -8.09,-0.11 -8.09,-1.75 1.66,-1.26 2.34,-3.53 2.62,-5.5 2.01,-13.94 -6.85,-27.14 -17.62,-35.13 l -0.56,-0.4 0.62,-0.22 0.66,-0.22 0.62,-0.22 0.66,-0.25 0.62,-0.22 0.66,-0.22 0.63,-0.22 0.65,-0.25 0.63,-0.21 0.62,-0.26 0.63,-0.21 0.65,-0.25 0.63,-0.22 0.62,-0.25 0.63,-0.25 0.62,-0.25 0.66,-0.25 0.63,-0.25 0.62,-0.25 0.62,-0.25 0.63,-0.28 0.63,-0.25 0.62,-0.28 0.62,-0.26 0.63,-0.28 0.37,-0.15 0.41,-0.16 0.38,-0.19 0.4,-0.15 0.38,-0.19 0.4,-0.16 0.38,-0.18 0.37,-0.19 0.38,-0.19 0.4,-0.19 0.38,-0.18 0.38,-0.19 0.37,-0.19 0.37,-0.19 0.38,-0.22 0.38,-0.18 0.37,-0.19 0.37,-0.22 0.38,-0.22 0.38,-0.19 0.34,-0.21 0.37,-0.22 0.35,-0.22 0.37,-0.22 0.38,-0.22 0.12,-0.06 0.1,-0.09 0.12,-0.07 0.13,-0.09 0.12,-0.06 0.13,-0.1 0.09,-0.09 0.12,-0.06 0.1,-0.1 0.12,-0.09 0.1,-0.1 0.12,-0.09 0.1,-0.06 0.12,-0.09 0.1,-0.13 0.12,-0.06 0.09,-0.13 0.1,-0.06 0.12,-0.12 0.1,-0.1 0.09,-0.09 0.09,-0.13 0.1,-0.09 0.09,-0.09 0.1,-0.13 0.06,-0.03 0.06,-0.06 0.06,-0.07 0.03,-0.09 0.07,-0.06 0.03,-0.06 0.06,-0.07 0.03,-0.09 0.03,-0.06 0.03,-0.1 0.04,-0.06 0.03,-0.09 0,-0.07 0.03,-0.09 0,-0.09 0,-0.07 0,-0.09 0,-0.09 0,-0.1 0,-0.06 -0.03,-0.09 0,-0.1 -0.03,-0.06 -0.04,-0.09 -0.03,-0.07 -0.06,-0.06 -0.06,-0.06 -0.07,-0.06 -0.09,-0.07 -0.06,-0.03 -0.06,-0.06 -0.1,-0.06 -0.06,-0.03 -0.09,-0.07 -0.07,-0.03 -0.09,-0.06 -0.09,-0.03 -0.07,-0.03 -0.09,-0.03 -0.09,-0.04 -0.1,-0.03 -0.06,-0.03 -0.09,-0.03 -0.1,-0.03 -0.09,0 -0.1,-0.03 -0.09,0 -0.09,-0.03 -0.06,0 -0.1,-0.03 -0.12,0 -0.07,0 -0.12,0 -0.09,-0.03 -0.1,0 -0.09,0 -0.1,0 -0.09,0 -0.09,-0.04 -0.1,0 -0.09,0 -0.1,0 -0.09,0 -0.12,0 -0.1,0 -0.09,0 -0.1,0 -0.09,0 -0.09,0.04 -0.1,0 -0.09,0 -0.09,0 -0.1,0 -0.09,0 -0.09,0.03 -0.13,0 -0.13,0.03 -0.09,0 -0.12,0 -0.13,0 -0.12,0.03 -0.1,0 -0.12,0 -0.1,0 -0.12,0 -0.13,0 -0.12,-0.03 -0.09,0 -0.13,0 -0.13,0 -0.09,-0.03 -0.12,0 -0.13,-0.03 -0.09,0 -0.13,-0.04 -0.12,0 -0.1,-0.03 -0.12,-0.03 -0.1,-0.03 -0.12,0 0.03,-0.03 0.06,-0.06 0.03,-0.04 0.04,-0.03 0.03,-0.03 0.06,-0.03 0.03,-0.03 0.03,-0.03 0.07,-0.03 0.03,-0.03 0.03,-0.03 0.06,-0.04 0.06,-0.03 0.03,0 c 1.91,-1.14 13.26,-3.24 10.32,-6.622 -1.91,-2.225 -11.24,-1.06 -5.66,-4.907 6.58,-4.539 14.57,-6.896 21.59,-10.75 11.66,-6.367 -6.82,-5.156 -9.59,-6.125 -1.02,-0.358 -4.84,-1.554 -4.84,-3.156 0,-2.981 10.33,-5.444 11.62,-5.781 13.16,-3.445 26.66,-7.901 39.97,-10.563 0.03,-0.012 0.04,-0.018 0.06,-0.031 l 0.03,-0.031 0.07,-0.032 0.03,0 0.06,-0.031 0.03,-0.031 0.03,0 0.03,-0.031 0.07,-0.031 0.03,-0.032 0.06,-0.031 0.03,0 0.03,-0.031 0.03,-0.032 0.03,-0.031 0.07,-0.031 0.03,-0.031 0.03,-0.031 0.03,-0.032 0.03,-0.031 0.03,0 0.04,-0.031 0,-0.032 0.03,-0.031 0,-0.031 0,-0.031 0,-0.031 0,-0.032 0,-0.031 0,-0.031 0,-0.032 -0.03,-0.031 0,-0.031 -0.04,0 -0.03,-0.031 0,-0.031 -0.03,0 -0.03,-0.032 -0.03,-0.031 -0.03,0 -0.03,0 -0.04,0 -0.03,0 -0.03,0 -0.06,0 -0.09,-0.031 c -5.56,-0.108 -11.1,-0.165 -16.6,-0.125 z m -23.19,40.687 c 1.27,2.037 2.5,4.134 4.04,5.974 1.96,2.96 4.3,5.89 5.09,9.46 1.42,4.79 1.09,9.87 0.44,14.75 -0.2,0.94 -0.25,1.78 -0.25,2.72 0,1.01 -0.81,2.02 -0.44,3.1 l 0,0.28 c 1.49,-0.37 2.85,-1.31 4.34,-1.69 1.32,-0.53 3.52,-0.79 4.78,-0.03 3.58,2.14 0.85,6.92 0.85,10.06 -0.07,0.27 1.85,-0.38 2.12,-0.44 l 1.07,-0.34 c 2.28,-0.91 4.7,-1.76 7.15,-2.06 6.22,-0.9 11.82,3.04 15.53,7.69 0.17,0.18 0.32,0.38 0.47,0.59 0.39,-4 0.03,-8.64 -3.28,-11.47 -1.47,-1.71 -3.83,-2.85 -5.81,-3.84 -3.54,-1.29 -7.18,-2.53 -10.94,-3.04 -0.27,-0.05 -0.53,-0.08 -0.81,-0.12 -0.5,-10.25 -2.88,-22.54 -12.53,-28.19 -0.51,-0.37 -1.1,-0.62 -1.66,-0.904 -3.12,-1.434 -6.69,-2.5 -10.16,-2.5 z M 74.03,165.53 c -5.149,2.72 -9.595,5.37 -13.531,9.78 -3.374,3.78 -5.026,8.42 -7.188,12.97 -2.742,-1.97 -5.377,-3.92 -8.624,-5.06 -6.759,-2.38 -15.39,-2.58 -22,0.53 -1.344,0.63 -2.538,1.52 -3.813,2.28 4.159,0.64 8.391,0.86 12.469,1.88 5.42,1.34 7.092,4.27 5.968,9.62 6.5,-3.31 10.318,-3.85 16.094,1.41 l 1.25,-0.41 c 3.151,-3.69 4.076,-3.81 8.625,-3.44 0.356,-1.61 0.622,-3.28 1.157,-4.84 1.38,-4.03 4.967,-5.13 8.843,-5.34 -1.901,-6.96 -2.695,-12.79 0.75,-19.38 z m 104.31,30.47 -9.31,12.03 -4.31,5.31 2.75,3.35 2.31,3.62 1.28,2.81 0.78,2.97 0.22,2.57 -0.18,2.53 -1.07,4.93 -1.31,6.63 -0.09,2.31 0.4,2.28 0.69,1.16 1.19,0.66 1.47,-0.22 1.25,-0.88 1.62,-1.9 1.19,-2.16 1.59,-3.41 2.35,-5.06 0.56,-3.34 -0.22,-3.53 -0.16,-3.25 0.97,1.12 2.5,2.75 2.35,1.78 1.37,-2.34 0.66,-2.63 0.09,-2.9 -0.37,-2.91 -1.88,-6.22 -2.65,-5.94 -2.97,-5.78 z"
       transform="matrix(1.1177,0,0,1.1177,-79.071,0)"
       style="fill:#040102"
       id="path2274" /></g></svg>